<?xml version="1.0" standalone="no"?>
<!DOCTYPE svg PUBLIC "-//W3C//DTD SVG 20010904//EN"
 "http://www.w3.org/TR/2001/REC-SVG-20010904/DTD/svg10.dtd">
<svg version="1.0" xmlns="http://www.w3.org/2000/svg"
 width="317.000000pt" height="317.000000pt" viewBox="0 0 317.000000 317.000000"
 preserveAspectRatio="xMidYMid meet">
<metadata>
Created by potrace 1.14, written by Peter Selinger 2001-2017
</metadata>
<g transform="translate(0.000000,317.000000) scale(0.100000,-0.100000)"
fill="#000000" stroke="none">
<path d="M446 2755 c-18 -18 -15 -103 7 -185 40 -149 68 -263 71 -285 1 -11
11 -45 23 -76 12 -31 23 -83 24 -115 1 -33 9 -81 18 -108 14 -42 14 -49 1 -60
-8 -6 -29 -29 -46 -51 -17 -22 -54 -71 -83 -109 -82 -106 -107 -183 -80 -253
11 -29 14 -306 4 -323 -4 -7 -10 -65 -12 -129 -2 -64 -6 -147 -8 -186 -3 -38
-5 -78 -6 -88 0 -10 -9 -39 -20 -64 -11 -25 -22 -62 -25 -82 -3 -20 -8 -39
-10 -42 -17 -29 -22 -309 -5 -351 l11 -28 1430 0 1430 0 0 815 c0 448 -3 815
-7 815 -5 0 -24 -15 -43 -32 l-34 -33 -123 -2 c-97 -1 -128 -5 -153 -19 -16
-10 -30 -22 -30 -27 0 -5 -14 -6 -32 -2 -18 4 -49 7 -68 6 -30 -1 -38 4 -59
36 -14 21 -35 49 -48 63 -49 55 -46 196 6 298 33 66 69 220 72 312 1 36 4 69
7 75 3 5 8 47 10 92 3 64 0 86 -11 98 -9 8 -17 20 -19 26 -3 8 -29 12 -74 12
-76 0 -83 -3 -186 -80 -31 -24 -59 -43 -62 -43 -14 0 -128 -100 -155 -136 -40
-55 -80 -91 -122 -108 -35 -15 -36 -14 -47 9 -12 26 -23 31 -36 18 -4 -5 -94
-9 -199 -10 -106 -1 -248 -4 -317 -8 -69 -3 -129 -5 -135 -5 -93 6 -182 5
-190 -1 -6 -4 -24 -10 -40 -13 -17 -3 -42 -8 -57 -11 -29 -7 -59 14 -71 47 -3
9 -16 18 -28 20 -12 2 -23 11 -25 21 -1 9 -31 46 -66 81 -34 35 -78 80 -96 99
-18 20 -53 45 -78 56 -24 11 -47 27 -50 36 -5 11 -14 15 -29 11 -12 -3 -37 3
-58 14 -44 24 -51 24 -71 5z"/>
</g>
</svg>
